<?xml version="1.0" encoding="utf-8"?>
<!-- Generator: Adobe Illustrator 24.3.0, SVG Export Plug-In . SVG Version: 6.00 Build 0)  -->
<svg version="1.1" id="Layer_1" xmlns="http://www.w3.org/2000/svg" xmlns:xlink="http://www.w3.org/1999/xlink" x="0px" y="0px"
	 viewBox="0 0 370.29 150.16" style="enable-background:new 0 0 370.29 150.16;" xml:space="preserve">
<style type="text/css">
	.st0{fill:#4788A4;}
</style>
<path class="st0" d="M85.51,85.34h11.52L67.66,27.76l-50.7,99.76h11.96l39.02-76.58L85.51,85.34z M100.07,85.42H99.9l0,0.16
	L100.07,85.42z M135.36,56.71l22.29-28.87h-0.17h-12.91l-15.79,20.48l-15.79-20.48h-13l22.29,28.87l-22.13,28.71h13l15.71-20.32
	l15.71,20.32h12.83l0.08,0.16l0-0.16h0.08L135.36,56.71z M176.98,85.25h44.5l0-10.28h-36.77l7.73-9.95l6.5-8.39l14.31-18.59
	l7.98-10.28h-12.92h-44.5l0,10.28h36.6l-7.9,10.2l-6.5,8.39l-14.15,18.34l-7.9,10.28l-0.08,0.08h13L176.98,85.25z M245,85.34h42.03
	l0-10.28h-42.03c-2.88,0-5.26-2.38-5.26-5.26l0-10.86h37.01l0-10.28h-37.01l0-5.35c0-2.88,2.39-5.27,5.27-5.27h42.03l0-10.28H245
	c-8.55,0-15.46,6.99-15.46,15.55l0,26.49C229.54,78.34,236.45,85.34,245,85.34 M342.72,85.42l0-10.28l-30.19-0.08
	c-3.62-0.49-6.5-3.37-6.99-6.99l0-40.22h-10.28l0,39.24c0,2.88,0.66,5.59,1.89,8.06c1.73,3.62,4.69,6.58,8.31,8.39
	c2.47,1.23,5.18,1.89,8.06,1.89H342.72z"/>
<path class="st0" d="M346.63,112.59h-2.43v-0.59c0-0.4-0.08-0.7-0.22-0.9c-0.15-0.21-0.38-0.36-0.68-0.46
	c-0.31-0.1-0.69-0.16-1.14-0.18c-0.45-0.02-0.99-0.03-1.6-0.03c-0.73,0-1.37,0.01-1.91,0.03c-0.55,0.02-1,0.09-1.37,0.21
	c-0.36,0.12-0.64,0.31-0.81,0.57c-0.18,0.26-0.27,0.62-0.27,1.1c0,0.69,0.06,1.22,0.16,1.57c0.11,0.36,0.29,0.62,0.54,0.77
	c0.25,0.16,0.57,0.25,0.98,0.28c0.4,0.03,0.91,0.05,1.53,0.07c1.01,0.06,1.97,0.1,2.89,0.12c0.92,0.02,1.73,0.16,2.43,0.42
	c0.7,0.26,1.27,0.7,1.69,1.32c0.43,0.62,0.64,1.57,0.64,2.83c0,1.11-0.18,1.97-0.53,2.58c-0.36,0.61-0.83,1.07-1.42,1.36
	c-0.59,0.3-1.28,0.47-2.06,0.54c-0.78,0.06-1.61,0.09-2.48,0.09c-0.85,0-1.69-0.03-2.51-0.09c-0.82-0.06-1.56-0.21-2.21-0.44
	c-0.65-0.24-1.18-0.6-1.59-1.08s-0.61-1.16-0.61-2.03v-1.45h2.43v1.22c0,0.38,0.07,0.68,0.19,0.92c0.13,0.24,0.37,0.42,0.71,0.55
	c0.35,0.13,0.81,0.22,1.38,0.27c0.58,0.05,1.31,0.08,2.2,0.08c0.4,0,0.83,0.01,1.31,0.02c0.47,0.01,0.91-0.05,1.32-0.18
	c0.41-0.13,0.75-0.36,1.02-0.7c0.28-0.33,0.41-0.85,0.41-1.54c0-0.73-0.08-1.26-0.24-1.6c-0.16-0.34-0.4-0.57-0.73-0.7
	c-0.33-0.13-0.75-0.19-1.26-0.19c-0.51,0-1.13-0.02-1.84-0.06c-0.85-0.06-1.68-0.11-2.49-0.15c-0.81-0.04-1.54-0.18-2.18-0.43
	c-0.64-0.25-1.16-0.65-1.54-1.22c-0.38-0.56-0.58-1.4-0.58-2.5c0-1.13,0.16-2,0.47-2.63c0.32-0.62,0.77-1.08,1.35-1.37
	c0.58-0.29,1.3-0.46,2.14-0.52c0.84-0.06,1.78-0.09,2.83-0.09c0.67,0,1.37,0.03,2.09,0.08c0.72,0.05,1.38,0.19,1.97,0.43
	c0.59,0.24,1.08,0.6,1.45,1.08c0.37,0.48,0.56,1.17,0.56,2.06V112.59z M325.6,114.93c-0.04-1.11-0.11-1.97-0.22-2.6
	c-0.11-0.62-0.31-1.09-0.61-1.41c-0.3-0.32-0.71-0.51-1.24-0.58c-0.54-0.07-1.25-0.1-2.14-0.1c-1.07,0-1.89,0.08-2.48,0.22
	c-0.58,0.15-1.02,0.4-1.32,0.77c-0.3,0.36-0.49,0.85-0.58,1.45c-0.09,0.6-0.15,1.35-0.19,2.24H325.6z M328.03,119.38v0.56
	c0,1.03-0.18,1.84-0.55,2.42c-0.37,0.58-0.86,1.01-1.47,1.29c-0.61,0.28-1.32,0.45-2.12,0.52c-0.8,0.07-1.64,0.1-2.51,0.1
	c-1.52,0-2.74-0.13-3.66-0.4c-0.92-0.27-1.63-0.71-2.12-1.33c-0.49-0.62-0.82-1.44-0.98-2.46c-0.16-1.02-0.24-2.27-0.24-3.75
	c0-1.62,0.1-2.95,0.31-3.98c0.21-1.03,0.57-1.84,1.1-2.43c0.52-0.59,1.23-1,2.14-1.23c0.9-0.23,2.05-0.34,3.45-0.34
	c1.27,0,2.32,0.09,3.18,0.27c0.85,0.18,1.53,0.52,2.05,1.02c0.51,0.5,0.88,1.21,1.1,2.11c0.22,0.9,0.33,2.07,0.33,3.52v1.57h-11.21
	c0,1.23,0.04,2.21,0.12,2.94c0.08,0.73,0.27,1.29,0.58,1.68c0.31,0.38,0.77,0.64,1.38,0.76s1.44,0.18,2.49,0.18
	c0.79,0,1.46-0.02,2-0.06c0.55-0.04,0.98-0.14,1.32-0.31c0.34-0.17,0.57-0.41,0.71-0.73c0.14-0.32,0.21-0.75,0.21-1.31v-0.59H328.03
	z M308.96,118.46v0.86c0,1.11-0.17,1.99-0.52,2.64c-0.35,0.65-0.81,1.15-1.41,1.48c-0.59,0.34-1.29,0.56-2.09,0.67
	c-0.8,0.11-1.67,0.16-2.6,0.16c-1.62,0-2.89-0.16-3.81-0.47c-0.92-0.31-1.61-0.81-2.08-1.48s-0.75-1.53-0.86-2.58
	c-0.11-1.05-0.16-2.29-0.16-3.74c0-1.27,0.08-2.38,0.22-3.34c0.15-0.96,0.45-1.75,0.92-2.39c0.46-0.63,1.13-1.11,1.99-1.44
	c0.86-0.33,1.99-0.49,3.4-0.49c0.95,0,1.83,0.05,2.64,0.14c0.81,0.09,1.52,0.3,2.14,0.62c0.61,0.33,1.09,0.81,1.44,1.45
	s0.52,1.52,0.52,2.63v0.41h-2.34v-0.47c0-0.71-0.1-1.26-0.28-1.65c-0.19-0.38-0.46-0.67-0.83-0.84c-0.37-0.18-0.81-0.29-1.33-0.33
	c-0.53-0.04-1.12-0.06-1.8-0.06c-1.05,0-1.85,0.1-2.42,0.3c-0.57,0.2-0.98,0.55-1.26,1.04c-0.28,0.49-0.44,1.15-0.49,1.97
	c-0.05,0.82-0.07,1.85-0.07,3.1c0,1.11,0.03,2.03,0.1,2.76c0.07,0.73,0.26,1.31,0.56,1.75c0.31,0.44,0.78,0.75,1.41,0.93
	c0.63,0.19,1.52,0.28,2.67,0.28c0.73,0,1.35-0.03,1.87-0.09c0.51-0.06,0.93-0.2,1.25-0.41c0.32-0.22,0.54-0.54,0.68-0.95
	c0.14-0.41,0.21-0.98,0.21-1.69v-0.77H308.96z M289.29,104.43h-2.34v-2.58h2.34V104.43z M289.29,124.1h-2.34v-15.57h2.34V124.1z
	 M277.16,124.1h-3.29l-5.16-15.57h2.37l4.42,13.79h0.06l4.27-13.79h2.55L277.16,124.1z M256.01,108.52l-0.12,1.93l0.06,0.06
	c0.2-0.43,0.46-0.79,0.79-1.07c0.33-0.28,0.68-0.49,1.07-0.65c0.39-0.16,0.8-0.27,1.25-0.34c0.44-0.07,0.88-0.11,1.32-0.11
	c1.5,0,2.6,0.37,3.29,1.1c0.69,0.73,1.04,1.83,1.04,3.29v1.13h-2.23v-1.04c0-0.97-0.19-1.64-0.56-2.02
	c-0.38-0.37-1.06-0.56-2.05-0.56c-0.73,0-1.34,0.09-1.84,0.27c-0.49,0.18-0.89,0.44-1.19,0.79c-0.3,0.35-0.5,0.78-0.62,1.29
	c-0.12,0.52-0.17,1.12-0.15,1.81v9.7h-2.34v-15.57H256.01z M245.33,114.93c-0.04-1.11-0.11-1.97-0.22-2.6
	c-0.11-0.62-0.31-1.09-0.61-1.41c-0.3-0.32-0.71-0.51-1.24-0.58c-0.54-0.07-1.25-0.1-2.14-0.1c-1.07,0-1.89,0.08-2.48,0.22
	c-0.58,0.15-1.02,0.4-1.32,0.77c-0.3,0.36-0.49,0.85-0.58,1.45c-0.09,0.6-0.15,1.35-0.19,2.24H245.33z M247.76,119.38v0.56
	c0,1.03-0.18,1.84-0.55,2.42c-0.37,0.58-0.86,1.01-1.47,1.29c-0.61,0.28-1.32,0.45-2.12,0.52c-0.8,0.07-1.64,0.1-2.51,0.1
	c-1.52,0-2.74-0.13-3.66-0.4c-0.92-0.27-1.63-0.71-2.12-1.33c-0.49-0.62-0.82-1.44-0.98-2.46c-0.16-1.02-0.24-2.27-0.24-3.75
	c0-1.62,0.1-2.95,0.31-3.98c0.21-1.03,0.57-1.84,1.1-2.43c0.52-0.59,1.23-1,2.14-1.23c0.9-0.23,2.05-0.34,3.45-0.34
	c1.27,0,2.32,0.09,3.18,0.27c0.85,0.18,1.53,0.52,2.05,1.02c0.51,0.5,0.88,1.21,1.1,2.11c0.22,0.9,0.33,2.07,0.33,3.52v1.57h-11.21
	c0,1.23,0.04,2.21,0.12,2.94c0.08,0.73,0.27,1.29,0.58,1.68c0.31,0.38,0.77,0.64,1.38,0.76c0.61,0.12,1.44,0.18,2.49,0.18
	c0.79,0,1.46-0.02,2-0.06c0.55-0.04,0.98-0.14,1.32-0.31c0.34-0.17,0.57-0.41,0.71-0.73c0.14-0.32,0.21-0.75,0.21-1.31v-0.59H247.76
	z M217.34,113.63c-0.98-0.06-1.84-0.25-2.6-0.58c-0.75-0.33-1.34-0.86-1.78-1.6c-0.43-0.74-0.65-1.84-0.65-3.31
	c0-1.48,0.17-2.66,0.52-3.52c0.35-0.86,0.86-1.51,1.54-1.94c0.68-0.43,1.54-0.71,2.57-0.83c1.03-0.12,2.22-0.18,3.59-0.18
	c1.21,0,2.31,0.04,3.32,0.13c1.01,0.09,1.87,0.33,2.58,0.73c0.71,0.4,1.26,1.02,1.63,1.87c0.37,0.85,0.53,2.03,0.47,3.53h-2.52
	c-0.04-0.97-0.13-1.73-0.27-2.27c-0.14-0.55-0.41-0.94-0.8-1.2c-0.4-0.26-0.95-0.42-1.66-0.47c-0.71-0.06-1.66-0.09-2.85-0.09
	c-1.23,0-2.21,0.05-2.95,0.15c-0.74,0.1-1.31,0.28-1.71,0.55c-0.39,0.27-0.65,0.64-0.77,1.13c-0.12,0.48-0.18,1.11-0.18,1.88
	c0,1.07,0.13,1.87,0.39,2.4c0.26,0.53,0.64,0.91,1.14,1.14c0.5,0.23,1.14,0.36,1.91,0.39c0.77,0.03,1.68,0.06,2.73,0.07
	c1.33,0.08,2.48,0.16,3.47,0.25c0.99,0.09,1.81,0.32,2.48,0.7c0.66,0.38,1.16,0.96,1.5,1.77c0.34,0.8,0.5,1.95,0.5,3.45
	c0,1.58-0.18,2.81-0.55,3.68c-0.37,0.87-0.91,1.51-1.63,1.93c-0.72,0.41-1.62,0.67-2.68,0.76c-1.07,0.09-2.31,0.13-3.71,0.13
	c-1.42,0-2.67-0.07-3.74-0.21s-1.95-0.45-2.64-0.93c-0.69-0.48-1.19-1.2-1.48-2.15c-0.3-0.95-0.38-2.23-0.27-3.83h2.52
	c-0.02,1.23,0.04,2.17,0.18,2.83c0.14,0.66,0.41,1.15,0.83,1.45c0.42,0.31,0.99,0.48,1.72,0.53c0.73,0.05,1.69,0.08,2.88,0.08
	c1.19,0,2.17-0.03,2.95-0.08c0.78-0.05,1.4-0.21,1.85-0.47c0.45-0.27,0.78-0.7,0.96-1.29c0.19-0.6,0.28-1.43,0.28-2.52
	c0-1.07-0.12-1.85-0.35-2.36c-0.24-0.5-0.61-0.85-1.1-1.04c-0.49-0.19-1.12-0.29-1.87-0.31c-0.75-0.02-1.63-0.07-2.64-0.15
	C219.36,113.76,218.32,113.69,217.34,113.63 M191.31,125.19c-0.22,0.73-0.44,1.45-0.65,2.15c-0.22,0.7-0.51,1.33-0.89,1.87
	c-0.38,0.55-0.86,0.98-1.44,1.31s-1.34,0.49-2.27,0.49c-0.2,0-0.39-0.02-0.57-0.05c-0.18-0.03-0.34-0.07-0.5-0.1v-1.84
	c0.26,0.06,0.53,0.09,0.83,0.09c0.61,0,1.1-0.18,1.45-0.53c0.36-0.35,0.65-0.79,0.87-1.31c0.23-0.52,0.4-1.07,0.52-1.64
	c0.12-0.57,0.25-1.08,0.38-1.53h-0.83l-5.64-15.57h2.4l4.81,13.85h0.06l3.5-13.85h2.43L191.31,125.19z M170.1,108.52l-0.12,1.93
	l0.06,0.06c0.2-0.43,0.46-0.79,0.79-1.07c0.33-0.28,0.68-0.49,1.07-0.65c0.39-0.16,0.8-0.27,1.25-0.34
	c0.45-0.07,0.89-0.11,1.32-0.11c1.5,0,2.6,0.37,3.29,1.1c0.69,0.73,1.04,1.83,1.04,3.29v1.13h-2.23v-1.04
	c0-0.97-0.19-1.64-0.56-2.02c-0.38-0.37-1.06-0.56-2.05-0.56c-0.73,0-1.34,0.09-1.84,0.27c-0.49,0.18-0.89,0.44-1.19,0.79
	c-0.3,0.35-0.5,0.78-0.62,1.29c-0.12,0.52-0.17,1.12-0.15,1.81v9.7h-2.34v-15.57H170.1z M150.61,119.54
	c0.08,0.8,0.27,1.41,0.57,1.82c0.3,0.41,0.74,0.69,1.33,0.82c0.59,0.13,1.41,0.19,2.46,0.19s1.87-0.07,2.46-0.19
	c0.59-0.13,1.04-0.4,1.34-0.82c0.3-0.41,0.48-1.02,0.56-1.82c0.08-0.8,0.12-1.87,0.12-3.22c0-1.36-0.04-2.45-0.12-3.25
	c-0.08-0.8-0.27-1.41-0.56-1.82c-0.3-0.42-0.74-0.69-1.34-0.82s-1.41-0.19-2.46-0.19s-1.87,0.07-2.46,0.19s-1.04,0.4-1.33,0.82
	c-0.3,0.41-0.48,1.02-0.57,1.82c-0.08,0.8-0.12,1.88-0.12,3.25C150.49,117.67,150.53,118.74,150.61,119.54 M148.33,112.31
	c0.18-1.04,0.52-1.85,1.02-2.43c0.5-0.58,1.21-0.98,2.11-1.2c0.9-0.22,2.07-0.33,3.51-0.33s2.62,0.11,3.51,0.33
	c0.9,0.22,1.6,0.62,2.11,1.2c0.5,0.59,0.84,1.39,1.02,2.43c0.18,1.04,0.27,2.38,0.27,4.02c0,1.64-0.09,2.98-0.27,4
	c-0.18,1.03-0.52,1.83-1.02,2.42c-0.5,0.59-1.21,0.98-2.11,1.2c-0.9,0.22-2.07,0.33-3.51,0.33s-2.62-0.11-3.51-0.33
	c-0.9-0.22-1.6-0.62-2.11-1.2c-0.5-0.58-0.84-1.39-1.02-2.42c-0.18-1.03-0.27-2.36-0.27-4
	C148.06,114.68,148.15,113.34,148.33,112.31 M142.27,112.59h-2.43v-0.59c0-0.4-0.07-0.7-0.22-0.9c-0.15-0.21-0.37-0.36-0.68-0.46
	c-0.31-0.1-0.69-0.16-1.14-0.18c-0.45-0.02-0.99-0.03-1.6-0.03c-0.73,0-1.37,0.01-1.91,0.03c-0.55,0.02-1,0.09-1.36,0.21
	c-0.37,0.12-0.64,0.31-0.82,0.57c-0.18,0.26-0.27,0.62-0.27,1.1c0,0.69,0.05,1.22,0.16,1.57c0.11,0.36,0.29,0.62,0.53,0.77
	c0.25,0.16,0.58,0.25,0.98,0.28c0.4,0.03,0.91,0.05,1.53,0.07c1.01,0.06,1.97,0.1,2.89,0.12c0.92,0.02,1.73,0.16,2.43,0.42
	c0.7,0.26,1.26,0.7,1.69,1.32c0.42,0.62,0.64,1.57,0.64,2.83c0,1.11-0.18,1.97-0.54,2.58c-0.36,0.61-0.83,1.07-1.42,1.36
	s-1.28,0.47-2.06,0.54c-0.78,0.06-1.61,0.09-2.48,0.09c-0.85,0-1.69-0.03-2.51-0.09c-0.82-0.06-1.56-0.21-2.21-0.44
	c-0.65-0.24-1.18-0.6-1.59-1.08c-0.4-0.48-0.61-1.16-0.61-2.03v-1.45h2.43v1.22c0,0.38,0.06,0.68,0.19,0.92
	c0.13,0.24,0.37,0.42,0.71,0.55c0.34,0.13,0.8,0.22,1.38,0.27c0.57,0.05,1.3,0.08,2.2,0.08c0.39,0,0.83,0.01,1.3,0.02
	c0.47,0.01,0.91-0.05,1.32-0.18c0.4-0.13,0.75-0.36,1.02-0.7c0.28-0.33,0.41-0.85,0.41-1.54c0-0.73-0.08-1.26-0.24-1.6
	c-0.16-0.34-0.4-0.57-0.73-0.7c-0.33-0.13-0.75-0.19-1.26-0.19c-0.51,0-1.13-0.02-1.84-0.06c-0.85-0.06-1.68-0.11-2.49-0.15
	c-0.81-0.04-1.54-0.18-2.18-0.43c-0.64-0.25-1.16-0.65-1.54-1.22c-0.39-0.56-0.58-1.4-0.58-2.5c0-1.13,0.16-2,0.47-2.63
	c0.31-0.62,0.77-1.08,1.35-1.37c0.58-0.29,1.29-0.46,2.14-0.52c0.84-0.06,1.78-0.09,2.83-0.09c0.67,0,1.37,0.03,2.09,0.08
	c0.72,0.05,1.38,0.19,1.97,0.43c0.6,0.24,1.08,0.6,1.45,1.08c0.37,0.48,0.56,1.17,0.56,2.06V112.59z M123.23,104.43h-2.34v-2.58
	h2.34V104.43z M123.23,124.1h-2.34v-15.57h2.34V124.1z M111.1,124.1h-3.29l-5.16-15.57h2.37l4.42,13.79h0.06l4.27-13.79h2.55
	L111.1,124.1z M95.7,122.14l-0.06-0.06c-0.24,0.47-0.53,0.85-0.87,1.14c-0.35,0.29-0.74,0.51-1.19,0.67
	c-0.45,0.16-0.92,0.26-1.41,0.31c-0.49,0.05-1.01,0.07-1.54,0.07c-1.38,0-2.48-0.19-3.29-0.58c-0.81-0.38-1.42-0.92-1.84-1.62
	c-0.41-0.69-0.68-1.53-0.8-2.51c-0.12-0.98-0.18-2.06-0.18-3.25c0-1.17,0.06-2.24,0.16-3.22c0.11-0.98,0.37-1.82,0.79-2.52
	c0.41-0.7,1.03-1.25,1.84-1.65c0.81-0.4,1.92-0.6,3.32-0.6c0.43,0,0.91,0.02,1.42,0.06c0.51,0.04,1.01,0.13,1.48,0.28
	c0.47,0.15,0.9,0.36,1.28,0.64c0.37,0.28,0.65,0.65,0.83,1.13h0.06v-8.6h2.34v22.25H95.7V122.14z M93.58,122.11
	c0.56-0.18,1-0.49,1.32-0.95c0.32-0.45,0.53-1.07,0.64-1.85c0.11-0.78,0.16-1.77,0.16-2.98c0-1.07-0.05-1.99-0.13-2.76
	c-0.09-0.77-0.29-1.4-0.59-1.88c-0.31-0.48-0.75-0.85-1.32-1.08c-0.57-0.24-1.33-0.36-2.28-0.36c-0.89,0-1.62,0.06-2.2,0.18
	s-1.02,0.39-1.35,0.82c-0.33,0.42-0.56,1.04-0.68,1.84c-0.13,0.8-0.19,1.88-0.19,3.25c0,1.34,0.08,2.42,0.22,3.22
	c0.15,0.8,0.39,1.41,0.73,1.82c0.34,0.41,0.79,0.69,1.37,0.82c0.57,0.13,1.27,0.19,2.11,0.19
	C92.28,122.38,93.02,122.29,93.58,122.11 M70.19,103.93L65.3,117.3h9.85L70.19,103.93z M64.61,119.38l-1.72,4.72h-2.64l8.1-22.25
	h3.56l8.31,22.25h-2.61l-1.75-4.72H64.61z"/>
</svg>
